<?xml version="1.0" standalone="no"?><!DOCTYPE svg PUBLIC "-//W3C//DTD SVG 1.1//EN" "http://www.w3.org/Graphics/SVG/1.1/DTD/svg11.dtd"><svg t="1661164352731" class="icon" viewBox="0 0 1024 1024" version="1.1" xmlns="http://www.w3.org/2000/svg" p-id="1929" xmlns:xlink="http://www.w3.org/1999/xlink" width="200" height="200"><defs><style type="text/css">@font-face { font-family: feedback-iconfont; src: url("//at.alicdn.com/t/font_1031158_u69w8yhxdu.woff2?t=1630033759944") format("woff2"), url("//at.alicdn.com/t/font_1031158_u69w8yhxdu.woff?t=1630033759944") format("woff"), url("//at.alicdn.com/t/font_1031158_u69w8yhxdu.ttf?t=1630033759944") format("truetype"); }
</style></defs><path d="M768 128c16.954 0 32.986 6.696 45.145 18.855C825.304 159.014 832 175.046 832 192v640c0 16.954-6.696 32.986-18.855 45.145-7.759 7.759-17.095 13.293-27.242 16.283L550.4 716.8c-11.378-8.533-24.889-12.8-38.4-12.8s-27.022 4.267-38.4 12.8L238.096 893.428c-10.146-2.99-19.483-8.524-27.242-16.283C198.696 864.986 192 848.954 192 832V192c0-16.954 6.696-32.986 18.855-45.145C223.014 134.696 239.046 128 256 128h512m0-64H256c-70.4 0-128 57.6-128 128v640c0 70.4 57.6 128 128 128l256-192 256 192c70.4 0 128-57.6 128-128V192c0-70.4-57.6-128-128-128z" p-id="1930"></path><path d="M512.051 192c-26.305-0.007-52.571 42.752-79.97 128.019-173.672 2.395-191.035 56.005-47.991 160.013C349.336 584.323 349.962 640 390.863 640c24.991 0 65.017-20.782 121.201-63.959C568.239 619.211 608.273 640 633.265 640c40.913 0 41.529-55.666 6.771-159.968C779.34 378.621 766.45 319.904 604.742 319.904c-4.14 0-8.359 0.038-12.694 0.115-27.463-85.425-53.75-128.012-79.997-128.019z m-83.468 364.732s7.167-32.982 31.055-100.898c0 0-57.765-39.536-87.32-67.758 0 0 18.515-4.464 106.682-4.7 0 0 23.831-77.486 33.027-95.931 0 0 9.835 19.889 33.612 97.445 0 0 26.546-0.962 54.12-0.962 20.899 0 42.387 0.552 53.362 2.495 0 0-25.954 26.245-88.621 69.384 0 0 26.829 76.482 31.051 100.926 0 0-29.885-18.482-83.551-61.398 0-0.002-61.417 48.508-83.417 61.397z" p-id="1931"></path></svg>